<svg xmlns="http://www.w3.org/2000/svg" width="522.05615234375" height="459.94256591796875" viewBox="-347.5949401855469 -158.5003662109375 522.05615234375 459.94256591796875"><title>Neo4j Graph Visualization</title><desc>Created using Neo4j (http://www.neo4j.com/)</desc><g class="layer relationships"><g class="relationship" transform="translate(-197.74014321082154 -75.33015493681174) rotate(382.9735198327912)"><path class="outline" fill="#A5ABB6" stroke="none" d="M 25 0.5 L 86.97587232327388 0.5 L 86.97587232327388 -0.5 L 25 -0.5 Z M 119.65946607327388 0.5 L 181.63533839654775 0.5 L 181.63533839654775 3.5 L 188.63533839654775 0 L 181.63533839654775 -3.5 L 181.63533839654775 -0.5 L 119.65946607327388 -0.5 Z"/><text text-anchor="middle" pointer-events="none" font-size="8px" fill="#000000" x="103.31766919827388" y="3" font-family="sans-serif">created</text></g><g class="relationship" transform="translate(-19.462926265167738 0.24681373789661443) rotate(421.2174733404038)"><path class="outline" fill="#A5ABB6" stroke="none" d="M 5 0.5 L 68.23477337844382 0.5 L 68.23477337844382 -0.5 L 5 -0.5 Z M 105.36758587844382 0.5 L 168.60235925688764 0.5 L 168.60235925688764 3.5 L 175.60235925688764 0 L 168.60235925688764 -3.5 L 168.60235925688764 -0.5 L 105.36758587844382 -0.5 Z"/><text text-anchor="middle" pointer-events="none" font-size="8px" fill="#000000" x="86.80117962844382" y="3" font-family="sans-serif">hasBody</text></g><g class="relationship" transform="translate(77.12438288947148 176.06546533577333) rotate(498.57008634931424)"><path class="outline" fill="#A5ABB6" stroke="none" d="M 25 0.5 L 49.86965629864457 0.5 L 49.86965629864457 -0.5 L 25 -0.5 Z M 88.77981254864457 0.5 L 113.64946884728914 0.5 L 113.64946884728914 3.5 L 120.64946884728914 0 L 113.64946884728914 -3.5 L 113.64946884728914 -0.5 L 88.77981254864457 -0.5 Z"/><text text-anchor="middle" pointer-events="none" font-size="8px" fill="#000000" x="69.32473442364457" y="3" transform="rotate(180 69.32473442364457 0)" font-family="sans-serif">relatedTo</text></g><g class="relationship" transform="translate(-128.39386897788856 221.0857801885105) rotate(388.06706198822076)"><path class="outline" fill="#A5ABB6" stroke="none" d="M 25 0.5 L 31.620822343150707 0.5 L 31.620822343150707 -0.5 L 25 -0.5 Z M 70.5309785931507 0.5 L 77.15180093630141 0.5 L 77.15180093630141 3.5 L 84.15180093630141 0 L 77.15180093630141 -3.5 L 77.15180093630141 -0.5 L 70.5309785931507 -0.5 Z"/><text text-anchor="middle" pointer-events="none" font-size="8px" fill="#000000" x="51.07590046815071" y="3" font-family="sans-serif">relatedTo</text></g><g class="relationship" transform="translate(-19.462926265167738 0.24681373789661443) rotate(419.23193798812946)"><path class="outline" fill="#A5ABB6" stroke="none" d="M 5 0.5 L 26.77138177834044 0.5 L 26.77138177834044 -0.5 L 5 -0.5 Z M 67.90419427834044 0.5 L 89.67557605668088 0.5 L 89.67557605668088 3.5 L 96.67557605668088 0 L 89.67557605668088 -3.5 L 89.67557605668088 -0.5 L 67.90419427834044 -0.5 Z"/><text text-anchor="middle" pointer-events="none" font-size="8px" fill="#000000" x="47.33778802834044" y="3" font-family="sans-serif">hasTarget</text></g><g class="relationship" transform="translate(-19.462926265167738 0.24681373789661443) rotate(448.9928071923251)"><path class="outline" fill="#A5ABB6" stroke="none" d="M 5 0.5 L 23.535103737689454 0.5 L 23.535103737689454 -0.5 L 5 -0.5 Z M 64.66791623768945 0.5 L 83.20301997537891 0.5 L 83.20301997537891 3.5 L 90.20301997537891 0 L 83.20301997537891 -3.5 L 83.20301997537891 -0.5 L 64.66791623768945 -0.5 Z"/><text text-anchor="middle" pointer-events="none" font-size="8px" fill="#000000" x="44.101509987689454" y="3" font-family="sans-serif">hasTarget</text></g><g class="relationship" transform="translate(-19.462926265167738 0.24681373789661443) rotate(397.7014951381889)"><path class="outline" fill="#A5ABB6" stroke="none" d="M 5 0.5 L 42.551886504447396 0.5 L 42.551886504447396 -0.5 L 5 -0.5 Z M 83.6846990044474 0.5 L 121.23658550889479 0.5 L 121.23658550889479 3.5 L 128.2365855088948 0 L 121.23658550889479 -3.5 L 121.23658550889479 -0.5 L 83.6846990044474 -0.5 Z"/><text text-anchor="middle" pointer-events="none" font-size="8px" fill="#000000" x="63.118292754447396" y="3" font-family="sans-serif">hasTarget</text></g><g class="relationship" transform="translate(-19.462926265167738 0.24681373789661443) rotate(376.6146719525699)"><path class="outline" fill="#A5ABB6" stroke="none" d="M 5 0.5 L 49.248438512909345 0.5 L 49.248438512909345 -0.5 L 5 -0.5 Z M 90.38125101290935 0.5 L 134.6296895258187 0.5 L 134.6296895258187 3.5 L 141.6296895258187 0 L 134.6296895258187 -3.5 L 134.6296895258187 -0.5 L 90.38125101290935 -0.5 Z"/><text text-anchor="middle" pointer-events="none" font-size="8px" fill="#000000" x="69.81484476290935" y="3" font-family="sans-serif">hasTarget</text></g><g class="relationship" transform="translate(-19.462926265167738 0.24681373789661443) rotate(355.8041235452041)"><path class="outline" fill="#A5ABB6" stroke="none" d="M 5 0.5 L 48.61727753167095 0.5 L 48.61727753167095 -0.5 L 5 -0.5 Z M 89.75009003167095 0.5 L 133.3673675633419 0.5 L 133.3673675633419 3.5 L 140.3673675633419 0 L 133.3673675633419 -3.5 L 133.3673675633419 -0.5 L 89.75009003167095 -0.5 Z"/><text text-anchor="middle" pointer-events="none" font-size="8px" fill="#000000" x="69.18368378167095" y="3" font-family="sans-serif">hasTarget</text></g><g class="relationship" transform="translate(-19.462926265167738 0.24681373789661443) rotate(374.7988703258129)"><path class="outline" fill="#A5ABB6" stroke="none" d="M 5 0.5 L 19.325736092246267 0.5 L 19.325736092246267 -0.5 L 5 -0.5 Z M 60.45854859224627 0.5 L 74.78428468449253 0.5 L 74.78428468449253 3.5 L 81.78428468449253 0 L 74.78428468449253 -3.5 L 74.78428468449253 -0.5 L 60.45854859224627 -0.5 Z"/><text text-anchor="middle" pointer-events="none" font-size="8px" fill="#000000" x="39.89214234224627" y="3" font-family="sans-serif">hasTarget</text></g><g class="relationship" transform="translate(-19.462926265167738 0.24681373789661443) rotate(313.21870831001496)"><path class="outline" fill="#A5ABB6" stroke="none" d="M 5 0.5 L 13.394643888103388 0.5 L 13.394643888103388 -0.5 L 5 -0.5 Z M 54.52745638810339 0.5 L 62.92210027620678 0.5 L 62.92210027620678 3.5 L 69.92210027620678 0 L 62.92210027620678 -3.5 L 62.92210027620678 -0.5 L 54.52745638810339 -0.5 Z"/><text text-anchor="middle" pointer-events="none" font-size="8px" fill="#000000" x="33.96105013810339" y="3" font-family="sans-serif">hasTarget</text></g><g class="relationship" transform="translate(-19.462926265167738 0.24681373789661443) rotate(507.1508077040209)"><path class="outline" fill="#A5ABB6" stroke="none" d="M 5 0.5 L 5.213173539217031 0.5 L 5.213173539217031 -0.5 L 5 -0.5 Z M 46.34598603921703 0.5 L 46.55915957843406 0.5 L 46.55915957843406 3.5 L 53.55915957843406 0 L 46.55915957843406 -3.5 L 46.55915957843406 -0.5 L 46.34598603921703 -0.5 Z"/><text text-anchor="middle" pointer-events="none" font-size="8px" fill="#000000" x="25.77957978921703" y="3" transform="rotate(180 25.77957978921703 0)" font-family="sans-serif">hasTarget</text></g><g class="relationship" transform="translate(-19.462926265167738 0.24681373789661443) rotate(335.83830075446326)"><path class="outline" fill="#A5ABB6" stroke="none" d="M 5 0.5 L 33.5461806890349 0.5 L 33.5461806890349 -0.5 L 5 -0.5 Z M 74.6789931890349 0.5 L 103.2251738780698 0.5 L 103.2251738780698 3.5 L 110.2251738780698 0 L 103.2251738780698 -3.5 L 103.2251738780698 -0.5 L 74.6789931890349 -0.5 Z"/><text text-anchor="middle" pointer-events="none" font-size="8px" fill="#000000" x="54.1125869390349" y="3" font-family="sans-serif">hasTarget</text></g><g class="relationship" transform="translate(-19.462926265167738 0.24681373789661443) rotate(243.45056801559156)"><path class="outline" fill="#A5ABB6" stroke="none" d="M 5 0.5 L 27.624395715802784 0.5 L 27.624395715802784 -0.5 L 5 -0.5 Z M 68.75720821580279 0.5 L 91.38160393160557 0.5 L 91.38160393160557 3.5 L 98.38160393160557 0 L 91.38160393160557 -3.5 L 91.38160393160557 -0.5 L 68.75720821580279 -0.5 Z"/><text text-anchor="middle" pointer-events="none" font-size="8px" fill="#000000" x="48.190801965802784" y="3" transform="rotate(180 48.190801965802784 0)" font-family="sans-serif">hasTarget</text></g><g class="relationship" transform="translate(-19.462926265167738 0.24681373789661443) rotate(295.70934063719477)"><path class="outline" fill="#A5ABB6" stroke="none" d="M 5 0.5 L 37.93485614599021 0.5 L 37.93485614599021 -0.5 L 5 -0.5 Z M 79.06766864599021 0.5 L 112.00252479198042 0.5 L 112.00252479198042 3.5 L 119.00252479198042 0 L 112.00252479198042 -3.5 L 112.00252479198042 -0.5 L 79.06766864599021 -0.5 Z"/><text text-anchor="middle" pointer-events="none" font-size="8px" fill="#000000" x="58.50126239599021" y="3" font-family="sans-serif">hasTarget</text></g><g class="relationship" transform="translate(-19.462926265167738 0.24681373789661443) rotate(316.33640500593515)"><path class="outline" fill="#A5ABB6" stroke="none" d="M 5 0.5 L 49.35861462302759 0.5 L 49.35861462302759 -0.5 L 5 -0.5 Z M 90.49142712302759 0.5 L 134.85004174605518 0.5 L 134.85004174605518 3.5 L 141.85004174605518 0 L 134.85004174605518 -3.5 L 134.85004174605518 -0.5 L 90.49142712302759 -0.5 Z"/><text text-anchor="middle" pointer-events="none" font-size="8px" fill="#000000" x="69.92502087302759" y="3" font-family="sans-serif">hasTarget</text></g><g class="relationship" transform="translate(-19.462926265167738 0.24681373789661443) rotate(271.1744326134103)"><path class="outline" fill="#A5ABB6" stroke="none" d="M 5 0.5 L 29.254684098688642 0.5 L 29.254684098688642 -0.5 L 5 -0.5 Z M 70.38749659868864 0.5 L 94.64218069737728 0.5 L 94.64218069737728 3.5 L 101.64218069737728 0 L 94.64218069737728 -3.5 L 94.64218069737728 -0.5 L 70.38749659868864 -0.5 Z"/><text text-anchor="middle" pointer-events="none" font-size="8px" fill="#000000" x="49.82109034868864" y="3" font-family="sans-serif">hasTarget</text></g><g class="relationship" transform="translate(-19.462926265167738 0.24681373789661443) rotate(210.7508048767026)"><path class="outline" fill="#A5ABB6" stroke="none" d="M 5 0.5 L 15.615948945400028 0.5 L 15.615948945400028 -0.5 L 5 -0.5 Z M 56.74876144540003 0.5 L 67.36471039080006 0.5 L 67.36471039080006 3.5 L 74.36471039080006 0 L 67.36471039080006 -3.5 L 67.36471039080006 -0.5 L 56.74876144540003 -0.5 Z"/><text text-anchor="middle" pointer-events="none" font-size="8px" fill="#000000" x="36.18235519540003" y="3" transform="rotate(180 36.18235519540003 0)" font-family="sans-serif">hasTarget</text></g><g class="relationship" transform="translate(-197.74014321082154 -75.33015493681174) rotate(454.28438414244346)"><path class="outline" fill="#A5ABB6" stroke="none" d="M 25 0.5 L 86.10660022711536 0.5 L 86.10660022711536 -0.5 L 25 -0.5 Z M 118.79019397711536 0.5 L 179.89679420423073 0.5 L 179.89679420423073 3.5 L 186.89679420423073 0 L 179.89679420423073 -3.5 L 179.89679420423073 -0.5 L 118.79019397711536 -0.5 Z"/><text text-anchor="middle" pointer-events="none" font-size="8px" fill="#000000" x="102.44839710211536" y="3" transform="rotate(180 102.44839710211536 0)" font-family="sans-serif">created</text></g><g class="relationship" transform="translate(-212.07616609681625 116.0303897783231) rotate(411.46078340219367)"><path class="outline" fill="#A5ABB6" stroke="none" d="M 5 0.5 L 35.08893960075375 0.5 L 35.08893960075375 -0.5 L 5 -0.5 Z M 72.22175210075375 0.5 L 102.3106917015075 0.5 L 102.3106917015075 3.5 L 109.3106917015075 0 L 102.3106917015075 -3.5 L 102.3106917015075 -0.5 L 72.22175210075375 -0.5 Z"/><text text-anchor="middle" pointer-events="none" font-size="8px" fill="#000000" x="53.65534585075375" y="3" font-family="sans-serif">hasBody</text></g><g class="relationship" transform="translate(-212.07616609681625 116.0303897783231) rotate(224.796948590128)"><path class="outline" fill="#A5ABB6" stroke="none" d="M 5 0.5 L 18.41830618158781 0.5 L 18.41830618158781 -0.5 L 5 -0.5 Z M 59.55111868158781 0.5 L 72.96942486317562 0.5 L 72.96942486317562 3.5 L 79.96942486317562 0 L 72.96942486317562 -3.5 L 72.96942486317562 -0.5 L 59.55111868158781 -0.5 Z"/><text text-anchor="middle" pointer-events="none" font-size="8px" fill="#000000" x="38.98471243158781" y="3" transform="rotate(180 38.98471243158781 0)" font-family="sans-serif">hasTarget</text></g><g class="relationship" transform="translate(-212.07616609681625 116.0303897783231) rotate(538.406842789014)"><path class="outline" fill="#A5ABB6" stroke="none" d="M 5 0.5 L 19.21357038512577 0.5 L 19.21357038512577 -0.5 L 5 -0.5 Z M 60.34638288512577 0.5 L 74.55995327025154 0.5 L 74.55995327025154 3.5 L 81.55995327025154 0 L 74.55995327025154 -3.5 L 74.55995327025154 -0.5 L 60.34638288512577 -0.5 Z"/><text text-anchor="middle" pointer-events="none" font-size="8px" fill="#000000" x="39.77997663512577" y="3" transform="rotate(180 39.77997663512577 0)" font-family="sans-serif">hasTarget</text></g><g class="relationship" transform="translate(-212.07616609681625 116.0303897783231) rotate(497.4527441056897)"><path class="outline" fill="#A5ABB6" stroke="none" d="M 5 0.5 L 21.774488142516 0.5 L 21.774488142516 -0.5 L 5 -0.5 Z M 62.907300642516 0.5 L 79.681788785032 0.5 L 79.681788785032 3.5 L 86.681788785032 0 L 79.681788785032 -3.5 L 79.681788785032 -0.5 L 62.907300642516 -0.5 Z"/><text text-anchor="middle" pointer-events="none" font-size="8px" fill="#000000" x="42.340894392516" y="3" transform="rotate(180 42.340894392516 0)" font-family="sans-serif">hasTarget</text></g><g class="relationship" transform="translate(-212.07616609681625 116.0303897783231) rotate(466.2061305159063)"><path class="outline" fill="#A5ABB6" stroke="none" d="M 5 0.5 L 27.547612304543826 0.5 L 27.547612304543826 -0.5 L 5 -0.5 Z M 68.68042480454383 0.5 L 91.22803710908765 0.5 L 91.22803710908765 3.5 L 98.22803710908765 0 L 91.22803710908765 -3.5 L 91.22803710908765 -0.5 L 68.68042480454383 -0.5 Z"/><text text-anchor="middle" pointer-events="none" font-size="8px" fill="#000000" x="48.114018554543826" y="3" transform="rotate(180 48.114018554543826 0)" font-family="sans-serif">hasTarget</text></g><g class="relationship" transform="translate(-212.07616609681625 116.0303897783231) rotate(437.9729976104747)"><path class="outline" fill="#A5ABB6" stroke="none" d="M 5 0.5 L 27.285109907764316 0.5 L 27.285109907764316 -0.5 L 5 -0.5 Z M 68.41792240776431 0.5 L 90.70303231552863 0.5 L 90.70303231552863 3.5 L 97.70303231552863 0 L 90.70303231552863 -3.5 L 90.70303231552863 -0.5 L 68.41792240776431 -0.5 Z"/><text text-anchor="middle" pointer-events="none" font-size="8px" fill="#000000" x="47.851516157764316" y="3" font-family="sans-serif">hasTarget</text></g></g><g class="layer nodes"><g class="node" transform="translate(-19.462926265167738,0.24681373789661443)"><circle class="outline" cx="0" cy="0" r="5" fill="#68BDF6" stroke="#5CA8DB" stroke-width="2px"/><text text-anchor="middle" pointer-events="none" y="5" font-size="10px" fill="#FFFFFF" font-family="sans-serif"/></g><g class="node" transform="translate(-197.74014321082154,-75.33015493681174)"><circle class="outline" cx="0" cy="0" r="25" fill="#FFD86E" stroke="#EDBA39" stroke-width="2px"/><text text-anchor="middle" pointer-events="none" y="5" font-size="10px" fill="#604A0E" font-family="sans-serif"> 0000-00…</text></g><g class="node" transform="translate(77.12438288947148,176.06546533577333)"><circle class="outline" cx="0" cy="0" r="25" fill="#6DCE9E" stroke="#60B58B" stroke-width="2px"/><text text-anchor="middle" pointer-events="none" y="5" font-size="10px" fill="#FFFFFF" font-family="sans-serif"> </text></g><g class="node" transform="translate(-32.07859336389099,272.44221436221125)"><circle class="outline" cx="0" cy="0" r="25" fill="#A5ABB6" stroke="#9AA1AC" stroke-width="2px"/><text text-anchor="middle" pointer-events="none" y="5" font-size="10px" fill="#FFFFFF" font-family="sans-serif"> URL</text></g><g class="node" transform="translate(42.781915849271314,104.79596695720149)"><circle class="outline" cx="0" cy="0" r="25" fill="#DE9BF9" stroke="#BF85D6" stroke-width="2px"/><text text-anchor="middle" pointer-events="none" y="5" font-size="10px" fill="#FFFFFF" font-family="sans-serif"> </text></g><g class="node" transform="translate(-17.437896179283786,115.43203442440142)"><circle class="outline" cx="0" cy="0" r="25" fill="#DE9BF9" stroke="#BF85D6" stroke-width="2px"/><text text-anchor="middle" pointer-events="none" y="5" font-size="10px" fill="#FFFFFF" font-family="sans-serif"> </text></g><g class="node" transform="translate(101.77902093339186,93.95829317305711)"><circle class="outline" cx="0" cy="0" r="25" fill="#DE9BF9" stroke="#BF85D6" stroke-width="2px"/><text text-anchor="middle" pointer-events="none" y="5" font-size="10px" fill="#FFFFFF" font-family="sans-serif"> </text></g><g class="node" transform="translate(140.2098713651237,47.89186729423896)"><circle class="outline" cx="0" cy="0" r="25" fill="#DE9BF9" stroke="#BF85D6" stroke-width="2px"/><text text-anchor="middle" pointer-events="none" y="5" font-size="10px" fill="#FFFFFF" font-family="sans-serif"> </text></g><g class="node" transform="translate(145.46121467598812,-11.852524659354213)"><circle class="outline" cx="0" cy="0" r="25" fill="#DE9BF9" stroke="#BF85D6" stroke-width="2px"/><text text-anchor="middle" pointer-events="none" y="5" font-size="10px" fill="#FFFFFF" font-family="sans-serif"> </text></g><g class="node" transform="translate(83.77915550271119,27.522370704040263)"><circle class="outline" cx="0" cy="0" r="25" fill="#DE9BF9" stroke="#BF85D6" stroke-width="2px"/><text text-anchor="middle" pointer-events="none" y="5" font-size="10px" fill="#FFFFFF" font-family="sans-serif"> </text></g><g class="node" transform="translate(45.53831304202934,-68.92719879119376)"><circle class="outline" cx="0" cy="0" r="25" fill="#DE9BF9" stroke="#BF85D6" stroke-width="2px"/><text text-anchor="middle" pointer-events="none" y="5" font-size="10px" fill="#FFFFFF" font-family="sans-serif"> </text></g><g class="node" transform="translate(-85.46057055025098,42.85963460778842)"><circle class="outline" cx="0" cy="0" r="25" fill="#DE9BF9" stroke="#BF85D6" stroke-width="2px"/><text text-anchor="middle" pointer-events="none" y="5" font-size="10px" fill="#FFFFFF" font-family="sans-serif"> </text></g><g class="node" transform="translate(103.91570228907983,-55.10263672393921)"><circle class="outline" cx="0" cy="0" r="25" fill="#DE9BF9" stroke="#BF85D6" stroke-width="2px"/><text text-anchor="middle" pointer-events="none" y="5" font-size="10px" fill="#FFFFFF" font-family="sans-serif"> </text></g><g class="node" transform="translate(-74.6107712207682,-110.12408544068505)"><circle class="outline" cx="0" cy="0" r="25" fill="#DE9BF9" stroke="#BF85D6" stroke-width="2px"/><text text-anchor="middle" pointer-events="none" y="5" font-size="10px" fill="#FFFFFF" font-family="sans-serif"> </text></g><g class="node" transform="translate(43.006229662646675,-129.50037006249016)"><circle class="outline" cx="0" cy="0" r="25" fill="#DE9BF9" stroke="#BF85D6" stroke-width="2px"/><text text-anchor="middle" pointer-events="none" y="5" font-size="10px" fill="#FFFFFF" font-family="sans-serif"> </text></g><g class="node" transform="translate(101.2373913294387,-114.9502772115779)"><circle class="outline" cx="0" cy="0" r="25" fill="#DE9BF9" stroke="#BF85D6" stroke-width="2px"/><text text-anchor="middle" pointer-events="none" y="5" font-size="10px" fill="#FFFFFF" font-family="sans-serif"> </text></g><g class="node" transform="translate(-16.86723259345883,-126.36876313220974)"><circle class="outline" cx="0" cy="0" r="25" fill="#DE9BF9" stroke="#BF85D6" stroke-width="2px"/><text text-anchor="middle" pointer-events="none" y="5" font-size="10px" fill="#FFFFFF" font-family="sans-serif"> </text></g><g class="node" transform="translate(-104.85688175488872,-50.55887528279399)"><circle class="outline" cx="0" cy="0" r="25" fill="#DE9BF9" stroke="#BF85D6" stroke-width="2px"/><text text-anchor="middle" pointer-events="none" y="5" font-size="10px" fill="#FFFFFF" font-family="sans-serif"> </text></g><g class="node" transform="translate(-212.07616609681625,116.0303897783231)"><circle class="outline" cx="0" cy="0" r="5" fill="#68BDF6" stroke="#5CA8DB" stroke-width="2px"/><text text-anchor="middle" pointer-events="none" y="5" font-size="10px" fill="#FFFFFF" font-family="sans-serif"/></g><g class="node" transform="translate(-128.39386897788856,221.0857801885105)"><circle class="outline" cx="0" cy="0" r="25" fill="#6DCE9E" stroke="#60B58B" stroke-width="2px"/><text text-anchor="middle" pointer-events="none" y="5" font-size="10px" fill="#FFFFFF" font-family="sans-serif"> </text></g><g class="node" transform="translate(-286.56333727273983,42.06930888901665)"><circle class="outline" cx="0" cy="0" r="25" fill="#DE9BF9" stroke="#BF85D6" stroke-width="2px"/><text text-anchor="middle" pointer-events="none" y="5" font-size="10px" fill="#FFFFFF" font-family="sans-serif"> </text></g><g class="node" transform="translate(-318.59492782543214,118.99299686677543)"><circle class="outline" cx="0" cy="0" r="25" fill="#DE9BF9" stroke="#BF85D6" stroke-width="2px"/><text text-anchor="middle" pointer-events="none" y="5" font-size="10px" fill="#FFFFFF" font-family="sans-serif"> </text></g><g class="node" transform="translate(-294.3543600095249,191.54939899247535)"><circle class="outline" cx="0" cy="0" r="25" fill="#DE9BF9" stroke="#BF85D6" stroke-width="2px"/><text text-anchor="middle" pointer-events="none" y="5" font-size="10px" fill="#FFFFFF" font-family="sans-serif"> </text></g><g class="node" transform="translate(-246.46835385077705,234.3618165053553)"><circle class="outline" cx="0" cy="0" r="25" fill="#DE9BF9" stroke="#BF85D6" stroke-width="2px"/><text text-anchor="middle" pointer-events="none" y="5" font-size="10px" fill="#FFFFFF" font-family="sans-serif"> </text></g><g class="node" transform="translate(-186.50821012666663,236.04003008665063)"><circle class="outline" cx="0" cy="0" r="25" fill="#DE9BF9" stroke="#BF85D6" stroke-width="2px"/><text text-anchor="middle" pointer-events="none" y="5" font-size="10px" fill="#FFFFFF" font-family="sans-serif"> </text></g></g></svg>