<?xml version="1.0" encoding="UTF-8" standalone="no"?>
<svg
   xmlns:dc="http://purl.org/dc/elements/1.1/"
   xmlns:cc="http://creativecommons.org/ns#"
   xmlns:rdf="http://www.w3.org/1999/02/22-rdf-syntax-ns#"
   xmlns:svg="http://www.w3.org/2000/svg"
   xmlns="http://www.w3.org/2000/svg"
   xmlns:sodipodi="http://sodipodi.sourceforge.net/DTD/sodipodi-0.dtd"
   xmlns:inkscape="http://www.inkscape.org/namespaces/inkscape"
   width="706.73993"
   height="515.8783"
   viewBox="-408.84326 -172.14729 706.73993 515.8783"
   version="1.1"
   id="svg5368"
   sodipodi:docname="schema_oct2020.svg"
   inkscape:version="1.0.1 (1.0.1+r73)">
  <metadata
     id="metadata5374">
    <rdf:RDF>
      <cc:Work
         rdf:about="">
        <dc:format>image/svg+xml</dc:format>
        <dc:type
           rdf:resource="http://purl.org/dc/dcmitype/StillImage" />
        <dc:title>Neo4j Graph Visualization</dc:title>
      </cc:Work>
    </rdf:RDF>
  </metadata>
  <defs
     id="defs5372" />
  <sodipodi:namedview
     pagecolor="#ffffff"
     bordercolor="#666666"
     borderopacity="1"
     objecttolerance="10"
     gridtolerance="10"
     guidetolerance="10"
     inkscape:pageopacity="0"
     inkscape:pageshadow="2"
     inkscape:window-width="1920"
     inkscape:window-height="961"
     id="namedview5370"
     showgrid="false"
     fit-margin-top="0"
     fit-margin-left="0"
     fit-margin-right="0"
     fit-margin-bottom="0"
     inkscape:zoom="1.2623492"
     inkscape:cx="452.05384"
     inkscape:cy="277.05764"
     inkscape:window-x="0"
     inkscape:window-y="27"
     inkscape:window-maximized="1"
     inkscape:current-layer="svg5368" />
  <title
     id="title4908">Neo4j Graph Visualization</title>
  <desc
     id="desc4910">Created using Neo4j (http://www.neo4j.com/)</desc>
  <path
     class="outline"
     fill="#a5abb6"
     stroke="none"
     d="m -19.032306,115.67209 0.937969,0.34672 A 103.57839,103.57839 0 0 1 11.607351,73.326477 l -0.651213,-0.758898 a 104.57839,104.57839 0 0 0 -29.988444,43.104511 z m 76.735483,-66.115124 0.204208,0.978928 a 103.57839,103.57839 0 0 1 51.947745,2.501478 l -0.89197,2.864331 7.72407,-1.26046 -5.64281,-5.422979 -0.89197,2.864331 A 104.57839,104.57839 0 0 0 57.703177,49.556966"
     id="path4912" />
  <text
     text-anchor="middle"
     pointer-events="none"
     font-size="8px"
     fill="#000000"
     x="5.5839272"
     y="70.026184"
     font-family="sans-serif"
     id="text4914"
     transform="rotate(-24.713098)">Year_Started</text>
  <path
     class="outline"
     fill="#a5abb6"
     stroke="none"
     d="m -7.7830923,155.01137 -0.6439694,0.76505 a 207.54962,207.54962 0 0 1 20.8791767,20.23702 l 0.744567,-0.66755 A 208.54962,208.54962 0 0 0 -7.7830923,155.01137 Z m 47.7457933,57.80427 -0.872912,0.48788 a 207.54962,207.54962 0 0 1 12.373285,26.31309 l -2.797579,1.0833 5.791532,5.26384 0.736159,-7.79153 -2.797585,1.08329 a 208.54962,208.54962 0 0 0 -12.4329,-26.43987"
     id="path4918" />
  <text
     text-anchor="middle"
     pointer-events="none"
     font-size="8px"
     fill="#000000"
     x="174.35667"
     y="91.503502"
     font-family="sans-serif"
     id="text4920"
     transform="rotate(55.088452)">Funded_by</text>
  <path
     class="outline"
     fill="#a5abb6"
     stroke="none"
     d="m 152.89266,-76.038424 8.90086,-8.400986 -0.68639,-0.727233 -8.90086,8.400987 z m 41.72291,-39.379746 8.90086,-8.40099 2.05917,2.1817 2.68826,-7.35005 -7.49299,2.25942 2.05917,2.1817 -8.90086,8.40098 z"
     id="path4924" />
  <text
     text-anchor="middle"
     pointer-events="none"
     font-size="8px"
     fill="#000000"
     x="198.18637"
     y="52.146557"
     font-family="sans-serif"
     id="text4926"
     transform="rotate(-43.345112)">In_Country</text>
  <path
     class="outline"
     fill="#a5abb6"
     stroke="none"
     d="m 143.32977,37.223565 0.99141,0.130753 a 89.836785,89.836785 0 0 1 6.63066,-23.962671 l -0.9176,-0.397489 a 90.836785,90.836785 0 0 0 -6.70447,24.229407 z m 71.60323,-77.065394 0.20315,0.979148 a 89.836785,89.836785 0 0 1 24.8094,-1.63361 l -0.21902,2.991992 7.23685,-2.9796 -6.72579,-4.001718 -0.21902,2.991993 a 90.836785,90.836785 0 0 0 -25.08557,1.651795"
     id="path4930" />
  <text
     text-anchor="middle"
     pointer-events="none"
     font-size="8px"
     fill="#000000"
     x="152.68703"
     y="93.696823"
     font-family="sans-serif"
     id="text4932"
     transform="rotate(-37.486892)">Month_Amended_Max</text>
  <path
     class="outline"
     fill="#a5abb6"
     stroke="none"
     d="m -17.79777,116.13741 1.502626,-3.91063 -0.933463,-0.35868 -1.502625,3.91064 z m 25.0266163,-65.132667 1.502625,-3.910638 2.8003887,1.076023 -0.756401,-7.789597 -5.7778384,5.278877 2.8003887,1.076023 -1.5026261,3.910638 z"
     id="path4936" />
  <text
     text-anchor="middle"
     pointer-events="none"
     font-size="8px"
     fill="#000000"
     x="-77.811195"
     y="27.54195"
     font-family="sans-serif"
     id="text4938"
     transform="rotate(-68.981198)">Administered_by</text>
  <path
     class="outline"
     fill="#a5abb6"
     stroke="none"
     d="m 25.4853,-110.5934 -0.643008,-0.76586 a 153.04645,153.04645 0 0 1 -10.397226,7.99557 l 0.575074,0.8181 a 154.04645,154.04645 0 0 0 10.46516,-8.04781 z m -55.463811,29.772849 -0.282962,-0.959132 a 153.04645,153.04645 0 0 1 -12.727511,3.168893 l -0.599405,-2.939508 -6.15955,4.828036 7.558163,2.030817 -0.599407,-2.939508 a 154.04645,154.04645 0 0 0 12.810672,-3.189598"
     id="path4954" />
  <text
     text-anchor="middle"
     pointer-events="none"
     font-size="8px"
     fill="#000000"
     x="32.013634"
     y="-81.705276"
     transform="rotate(-25.01652)"
     font-family="sans-serif"
     id="text4956">isAgentType</text>
  <path
     class="outline"
     fill="#a5abb6"
     stroke="none"
     d="m -55.418877,-88.185365 0.643009,0.765859 a 153.04645,153.04645 0 0 1 10.397225,-7.99557 l -0.575074,-0.818102 a 154.04645,154.04645 0 0 0 -10.46516,8.047813 z m 55.46381058,-29.772855 0.282962,0.95913 a 153.04645,153.04645 0 0 1 12.72751042,-3.16889 l 0.599405,2.93951 6.15955,-4.82804 -7.558163,-2.03082 0.599407,2.93951 a 154.04645,154.04645 0 0 0 -12.81067142,3.1896"
     id="path4960" />
  <text
     text-anchor="middle"
     pointer-events="none"
     font-size="8px"
     fill="#000000"
     x="24.920462"
     y="-105.08354"
     font-family="sans-serif"
     id="text4962"
     transform="rotate(-25.016522)">isAgentType</text>
  <path
     class="outline"
     fill="#a5abb6"
     stroke="none"
     d="m -40.772616,160.3157 -22.136043,35.92131 0.851334,0.52463 22.136043,-35.92132 z m -43.018524,69.80841 -22.13604,35.92132 -2.554,-1.57387 -0.6927,7.79552 6.65203,-4.12316 -2.554,-1.57387 22.136044,-35.92131 z"
     id="path4966" />
  <text
     text-anchor="middle"
     pointer-events="none"
     font-size="8px"
     fill="#000000"
     x="-219.96901"
     y="52.894279"
     transform="rotate(-58.35709)"
     font-family="sans-serif"
     id="text4968">fundedBy</text>
  <path
     class="outline"
     fill="#a5abb6"
     stroke="none"
     d="m -27.345806,164.29939 0.629527,40.82158 0.999881,-0.0154 -0.629527,-40.82158 z m 1.243298,80.62153 0.629527,40.82159 -2.999643,0.0463 3.607521,6.9452 3.391646,-7.05314 -2.999643,0.0463 -0.629527,-40.82159 z"
     id="path4972" />
  <text
     text-anchor="middle"
     pointer-events="none"
     font-size="8px"
     fill="#000000"
     x="224.58696"
     y="32.37598"
     font-family="sans-serif"
     id="text4974"
     transform="rotate(89.116488)">fundedBy</text>
  <path
     class="outline"
     fill="#a5abb6"
     stroke="none"
     d="m -98.078321,-79.288175 -0.283257,0.959045 a 111.03343,111.03343 0 0 0 -74.112192,3.975239 l -0.38422,-0.923242 a 112.03343,112.03343 0 0 1 74.779669,-4.011042 z m -104.193639,21.99836 0.64677,0.762689 a 111.03343,111.03343 0 0 0 -37.30755,64.1604699 l 2.94831,0.554521 -4.73358,6.2324421 -2.14581,-7.5263221 2.94831,0.554521 a 112.03343,112.03343 0 0 1 37.64355,-64.7383209"
     id="path4978" />
  <text
     text-anchor="middle"
     pointer-events="none"
     font-size="8px"
     fill="#000000"
     x="-133.1329"
     y="-145.68779"
     transform="rotate(-28.54531)"
     font-family="sans-serif"
     id="text4980">Created</text>
  <path
     class="outline"
     fill="#a5abb6"
     stroke="none"
     d="m -238.36252,15.5271 0.68893,0.72483 a 338.8524,338.8524 0 0 1 47.39737,-37.598565 l -0.54904,-0.83579 A 339.8524,339.8524 0 0 0 -238.36252,15.5271 Z m 77.29347,-55.162384 0.4615,0.887143 a 338.8524,338.8524 0 0 1 55.94966,-23.017377 l 0.88913,2.865213 5.648164,-5.417411 -7.722824,-1.268079 0.88914,2.865208 a 339.8524,339.8524 0 0 0 -56.11477,23.085303"
     id="path4990" />
  <text
     text-anchor="middle"
     pointer-events="none"
     font-size="8px"
     fill="#000000"
     x="-139.78702"
     y="-108.16656"
     font-family="sans-serif"
     id="text4992"
     transform="rotate(-28.545312)">Created</text>
  <path
     class="outline"
     fill="#a5abb6"
     stroke="none"
     d="m 155.38362,41.939493 0.79321,0.608943 a 221.30469,221.30469 0 0 1 8.58841,-10.504269 l -0.75441,-0.656408 a 222.30469,222.30469 0 0 0 -8.62721,10.551734 z m 74.70191,-62.341174 0.45718,0.889377 a 221.30469,221.30469 0 0 1 12.25184,-5.83034 l 1.20546,2.747155 5.00367,-6.017742 -7.8164,-0.392294 1.20545,2.747161 a 222.30469,222.30469 0 0 0 -12.3072,5.856683"
     id="path5002" />
  <text
     text-anchor="middle"
     pointer-events="none"
     font-size="8px"
     fill="#000000"
     x="152.97653"
     y="123.77943"
     font-family="sans-serif"
     id="text5004"
     transform="rotate(-37.486892)">Month_Amended_Min</text>
  <path
     class="outline"
     fill="#a5abb6"
     stroke="none"
     d="m -236.67267,20.07827 -0.24575,0.969331 a 447.61711,447.61711 0 0 1 85.85651,31.397864 l 0.43756,-0.899187 A 448.61711,448.61711 0 0 0 -236.67267,20.07827 Z m 111.05831,44.628392 -0.49349,0.869753 a 447.61711,447.61711 0 0 1 74.498845,52.981955 l -1.979238,2.25446 7.569528,1.98803 -2.951301,-7.24844 -1.979238,2.25446 A 448.61711,448.61711 0 0 0 -125.61436,64.706662"
     id="path5020" />
  <text
     text-anchor="middle"
     pointer-events="none"
     font-size="8px"
     fill="#000000"
     x="-92.148041"
     y="121.44273"
     font-family="sans-serif"
     id="text5022"
     transform="rotate(29.226528)">Target</text>
  <path
     class="outline"
     fill="#a5abb6"
     stroke="none"
     d="m -56.412469,-54.19748 7.498601,7.082528 0.68665,-0.726988 -7.498601,-7.082528 z m 45.049244,42.54961 7.4986019,7.0825289 -2.0599499,2.180964 7.4921928,2.26209201 -2.6856429,-7.35100901 -2.05995,2.180965 -7.4986019,-7.0825289 z"
     id="path5032" />
  <text
     text-anchor="middle"
     pointer-events="none"
     font-size="8px"
     fill="#000000"
     x="-42.08511"
     y="1.8346943"
     font-family="sans-serif"
     id="text5034"
     transform="rotate(43.365508)">affiliatedWith</text>
  <path
     class="outline"
     fill="#a5abb6"
     stroke="none"
     d="m -98.140104,300.03569 1.276318,0.31553 0.239995,-0.97077 -1.276318,-0.31554 z m 41.199405,10.18532 1.276317,0.31553 -0.719985,2.91232 7.635401,-1.71774 -5.955437,-5.07768 -0.719984,2.91233 -1.276317,-0.31554 z"
     id="path5038" />
  <text
     text-anchor="middle"
     pointer-events="none"
     font-size="8px"
     fill="#000000"
     x="-1.387611"
     y="317.32004"
     font-family="sans-serif"
     id="text5040"
     transform="rotate(13.886237)">divisionOf</text>
  <path
     class="outline"
     fill="#a5abb6"
     stroke="none"
     d="m -8.3194866,122.93644 0.6389437,0.76925 a 258.84744,258.84744 0 0 1 21.0434079,-15.7443 l -0.557647,-0.83007 a 259.84744,259.84744 0 0 0 -21.1247046,15.80512 z m 91.7175656,-49.106773 0.285977,0.95824 a 258.84744,258.84744 0 0 1 25.532804,-6.227678 l 0.56201,2.946886 6.22039,-4.749388 -7.53175,-2.126683 0.56201,2.946891 a 259.84744,259.84744 0 0 0 -25.631441,6.251732"
     id="path5050" />
  <text
     text-anchor="middle"
     pointer-events="none"
     font-size="8px"
     fill="#000000"
     x="5.8453789"
     y="102.85636"
     font-family="sans-serif"
     id="text5052"
     transform="rotate(-24.713098)">Year_Amended_Min</text>
  <path
     class="outline"
     fill="#a5abb6"
     stroke="none"
     d="m -238.40801,23.179933 0.69749,-0.716588 a 447.61711,447.61711 0 0 0 73.36471,57.810432 l -0.5336,0.84574 a 448.61711,448.61711 0 0 1 -73.5286,-57.939584 z m 94.38741,70.324374 0.48739,-0.87318 a 447.61711,447.61711 0 0 0 85.87632,36.738023 l 0.885749,-2.86626 5.654576,5.41071 -7.721319,1.27723 0.885749,-2.86625 A 448.61711,448.61711 0 0 1 -144.02031,93.504477"
     id="path5062" />
  <text
     text-anchor="middle"
     pointer-events="none"
     font-size="8px"
     fill="#000000"
     x="-92.148041"
     y="154.27322"
     font-family="sans-serif"
     id="text5064"
     transform="rotate(29.226528)">Body</text>
  <path
     class="outline"
     fill="#a5abb6"
     stroke="none"
     d="m 163.84706,52.974498 -0.38247,-0.923967 a 221.30469,221.30469 0 0 0 23.1866,-11.220453 l 0.48724,0.873266 a 222.30469,222.30469 0 0 1 -23.29137,11.271154 z m 71.09189,-47.1404351 -0.70227,-0.711911 a 221.30469,221.30469 0 0 0 17.25421,-19.1261379 l -2.3407,-1.876472 7.10924,-3.272413 -1.64761,7.650839 -2.3407,-1.876466 A 222.30469,222.30469 0 0 1 234.93895,5.8340629"
     id="path5074" />
  <text
     text-anchor="middle"
     pointer-events="none"
     font-size="8px"
     fill="#000000"
     x="152.97653"
     y="151.81149"
     font-family="sans-serif"
     id="text5076"
     transform="rotate(-37.486892)">Month_Expired</text>
  <path
     class="outline"
     fill="#a5abb6"
     stroke="none"
     d="m -236.66417,18.649176 -0.23422,-0.972185 a 338.8524,338.8524 0 0 0 53.03525,-17.51157409 l 0.39072,0.92050799 a 339.8524,339.8524 0 0 1 -53.19175,17.5632511 z m 92.35683,-37.259349 -0.50597,-0.862552 a 338.8524,338.8524 0 0 0 45.681987,-32.133279 l -1.922357,-2.303161 7.616799,-1.798466 -3.131312,7.172515 -1.922348,-2.303166 a 339.8524,339.8524 0 0 1 -45.816799,32.228109"
     id="path5080" />
  <text
     text-anchor="middle"
     pointer-events="none"
     font-size="8px"
     fill="#000000"
     x="-139.78702"
     y="-82.804878"
     font-family="sans-serif"
     id="text5082"
     transform="rotate(-28.545312)">Generated</text>
  <path
     class="outline"
     fill="#a5abb6"
     stroke="none"
     d="m -80.845752,-47.609498 -0.959044,-0.283257 A 111.03343,111.03343 0 0 1 -121.63128,9.4534209 l 0.60036,0.7997341 a 112.03343,112.03343 0 0 0 40.185168,-57.862653 z M -160.44348,29.173617 -160.69204,28.205 a 111.03343,111.03343 0 0 1 -69.6549,-4.788353 l 1.13632,-2.776473 -7.80414,0.587828 5.15274,5.89061 1.13631,-2.776472 a 112.03343,112.03343 0 0 0 70.28223,4.831477"
     id="path5092" />
  <text
     text-anchor="middle"
     pointer-events="none"
     font-size="8px"
     fill="#000000"
     x="-133.1329"
     y="-45.283634"
     transform="rotate(-28.54531)"
     font-family="sans-serif"
     id="text5094">Generated</text>
  <path
     class="outline"
     fill="#a5abb6"
     stroke="none"
     d="m -2.505372,135.56962 -0.1687148,-0.98567 a 258.84744,258.84744 0 0 0 37.3257038,-9.28837 l 0.312914,0.94979 a 259.84744,259.84744 0 0 1 -37.469903,9.32425 z m 86.503527,-31.33097 -0.501615,-0.86509 a 258.84744,258.84744 0 0 0 31.74938,-21.713133 l -1.87282,-2.34362 7.6534,-1.63568 -3.28349,7.10413 -1.87283,-2.34362 A 259.84744,259.84744 0 0 1 83.998155,104.23865"
     id="path5104" />
  <text
     text-anchor="middle"
     pointer-events="none"
     font-size="8px"
     fill="#000000"
     x="5.8453789"
     y="133.4482"
     font-family="sans-serif"
     id="text5106"
     transform="rotate(-24.713098)">Year_Expired</text>
  <path
     class="outline"
     fill="#a5abb6"
     stroke="none"
     d="m -245.52469,16.144107 0.70857,-0.705639 A 190.90678,190.90678 0 0 1 -257.00975,1.9689229 l -0.77245,0.635084 a 191.90678,191.90678 0 0 0 12.25751,13.5401001 z m -36.62463,-51.536125 0.89941,-0.43709 a 190.90678,190.90678 0 0 1 -7.1549,-16.700916 l 2.81069,-1.048829 -5.72641,-5.334634 -0.83186,7.781902 2.81068,-1.048829 a 191.90678,191.90678 0 0 0 7.19239,16.788398"
     id="path5110" />
  <text
     text-anchor="middle"
     pointer-events="none"
     font-size="8px"
     fill="#000000"
     x="-148.67207"
     y="229.73969"
     transform="rotate(60.11876)"
     font-family="sans-serif"
     id="text5112">isSynonym</text>
  <path
     class="outline"
     fill="#a5abb6"
     stroke="none"
     d="m -50.12867,149.3427 -45.034542,20.84619 0.420071,0.90749 45.034543,-20.84619 z m -71.46167,33.07914 -45.03454,20.84619 -1.26021,-2.72247 -4.88219,6.11672 7.82269,0.23571 -1.26022,-2.72247 45.03454,-20.84619 z"
     id="path5116" />
  <text
     text-anchor="middle"
     pointer-events="none"
     font-size="8px"
     fill="#000000"
     x="-172.41182"
     y="117.96951"
     transform="rotate(-24.83911)"
     font-family="sans-serif"
     id="text5118">isType</text>
  <path
     class="outline"
     fill="#a5abb6"
     stroke="none"
     d="m -19.187241,162.97043 0.94022,-0.34057 a 207.54962,207.54962 0 0 0 8.575828,20.25364 l -0.8989,0.43816 a 208.54962,208.54962 0 0 1 -8.617148,-20.35123 z m 42.522416,70.08529 0.736321,-0.67664 a 207.54962,207.54962 0 0 0 15.719284,15.38373 l 1.981762,-2.25224 2.943195,7.25172 -7.5673,-1.99648 1.981756,-2.25225 A 208.54962,208.54962 0 0 1 23.335175,233.05572"
     id="path5140" />
  <text
     text-anchor="middle"
     pointer-events="none"
     font-size="8px"
     fill="#000000"
     x="174.35667"
     y="118.59769"
     font-family="sans-serif"
     id="text5142"
     transform="rotate(55.088452)">Referenced_by</text>
  <path
     class="outline"
     fill="#a5abb6"
     stroke="none"
     d="m 40.831596,3.6092159 18.685292,-12.435454 -0.554039,-0.83249 -18.685293,12.435453 z m 48.489094,-32.2705079 18.6853,-12.435454 1.66211,2.497471 3.8883,-6.791994 -7.76657,0.964562 1.66212,2.497471 -18.6853,12.435454 z"
     id="path5146" />
  <text
     text-anchor="middle"
     pointer-events="none"
     font-size="8px"
     fill="#000000"
     x="72.337708"
     y="28.126961"
     font-family="sans-serif"
     id="text5148"
     transform="rotate(-33.644597)">In_State</text>
  <path
     class="outline"
     fill="#a5abb6"
     stroke="none"
     d="m -3.9555076,148.43167 0.3467214,-0.93797 a 103.57839,103.57839 0 0 0 37.8682342,6.40669 l 0.01888,0.99983 a 104.57839,104.57839 0 0 1 -38.2338356,-6.46855 z m 110.6636876,-24.602 -0.71147,-0.70271 a 103.57839,103.57839 0 0 0 21.45502,-31.854853 l -2.75581,-1.18553 5.98135,-5.04712 0.44889,7.81335 -2.75582,-1.18552 a 104.57839,104.57839 0 0 1 -21.66216,32.162383"
     id="path5152" />
  <text
     text-anchor="middle"
     pointer-events="none"
     font-size="8px"
     fill="#000000"
     x="5.5839272"
     y="166.27837"
     font-family="sans-serif"
     id="text5154"
     transform="rotate(-24.713098)">Year_Amended_Max</text>
  <path
     class="outline"
     fill="#a5abb6"
     stroke="none"
     d="m -69.295539,-47.216733 13.078657,58.7053 0.97607,-0.217453 -13.078656,-58.705301 z m 21.538969,96.680546 13.078657,58.705297 -2.928212,0.65237 4.938424,6.0714 1.89407,-7.59358 -2.928212,0.65236 -13.078656,-58.705301 z"
     id="path5158" />
  <text
     text-anchor="middle"
     pointer-events="none"
     font-size="8px"
     fill="#000000"
     x="18.442205"
     y="59.869881"
     font-family="sans-serif"
     id="text5160"
     transform="rotate(77.440472)">hasGrant</text>
  <path
     class="outline"
     fill="#a5abb6"
     stroke="none"
     d="m -240.82998,14.3753 2.00595,-31.959507 -0.99803,-0.06264 -2.00596,31.959507 z m 5.41947,-86.344675 2.00595,-31.959505 2.99411,0.18793 -3.05463,-7.2055 -3.93162,6.767 2.9941,0.18793 -2.00595,31.959503 z"
     id="path5164" />
  <text
     text-anchor="middle"
     pointer-events="none"
     font-size="8px"
     fill="#000000"
     x="29.835293"
     y="-236.9565"
     font-family="sans-serif"
     id="text5166"
     transform="rotate(-86.408512)">hasLanguage</text>
  <path
     class="outline"
     fill="#a5abb6"
     stroke="none"
     d="m -242.44306,14.373433 -0.96646,0.256816 a 190.90678,190.90678 0 0 0 -4.66214,-15.02177309 l 0.94204,-0.335503 a 191.90678,191.90678 0 0 1 4.68656,15.10046009 z m -27.46138,-59.625259 -0.82336,0.567516 a 190.90678,190.90678 0 0 0 -9.45213,-12.571648 l -2.32156,1.900104 -1.72509,-7.633744 7.14205,3.200169 -2.32155,1.900104 a 191.90678,191.90678 0 0 1 9.50164,12.637499"
     id="path5170" />
  <text
     text-anchor="middle"
     pointer-events="none"
     font-size="8px"
     fill="#000000"
     x="-148.67207"
     y="214.56155"
     transform="rotate(60.11876)"
     font-family="sans-serif"
     id="text5172">hasKeyword</text>
  <path
     class="outline"
     fill="#a5abb6"
     stroke="none"
     d="m -245.81487,16.534349 -29.88342,-15.99020509 -0.47179,0.88170999 29.88342,15.9902051 z m -78.69436,-42.108262 -29.88342,-15.990206 1.41538,-2.645131 -7.82324,-0.216551 4.5207,6.388524 1.41537,-2.645131 29.88342,15.990205 z"
     id="path5176" />
  <text
     text-anchor="middle"
     pointer-events="none"
     font-size="8px"
     fill="#000000"
     x="-270.509"
     y="134.05176"
     transform="rotate(28.15062)"
     font-family="sans-serif"
     id="text5178">hasMotivation</text>
  <path
     class="outline"
     fill="#a5abb6"
     stroke="none"
     d="m 165.27665,65.838848 0.13075,-0.991415 a 89.836785,89.836785 0 0 0 38.43089,-3.283323 l 0.29703,0.954867 a 90.836785,90.836785 0 0 1 -38.85867,3.319871 z m 85.7071,-37.13754 -0.81277,-0.58258 a 89.836785,89.836785 0 0 0 15.21678,-35.4423861 l -2.94648,-0.564172 4.75396,-6.2169059 2.12115,7.5333059 -2.94647,-0.564173 A 90.836785,90.836785 0 0 1 250.98375,28.701308"
     id="path5182" />
  <text
     text-anchor="middle"
     pointer-events="none"
     font-size="8px"
     fill="#000000"
     x="152.68703"
     y="181.8941"
     font-family="sans-serif"
     id="text5184"
     transform="rotate(-37.486892)">Month_Started</text>
  <g
     class="node selected"
     transform="translate(-231.89902,-135.89736)"
     id="g5196">
    <circle
       class="outline"
       cx="0"
       cy="0"
       r="25"
       fill="#da7194"
       stroke="#cc3c6c"
       stroke-width="2px"
       id="circle5190" />
    <text
       text-anchor="middle"
       pointer-events="none"
       font-family="sans-serif"
       dy="1.5625"
       font-size="25px"
       fill="#ffffff"
       id="text5192" />
    <text
       text-anchor="middle"
       pointer-events="none"
       y="5"
       font-size="10px"
       fill="#ffffff"
       font-family="sans-serif"
       id="text5194">LANGU…</text>
  </g>
  <g
     class="node"
     transform="translate(63.4845,269.27694)"
     id="g5204">
    <circle
       class="outline"
       cx="0"
       cy="0"
       r="25"
       fill="#ffc454"
       stroke="#d7a013"
       stroke-width="2px"
       id="circle5198" />
    <text
       text-anchor="middle"
       pointer-events="none"
       font-family="sans-serif"
       dy="1.5625"
       font-size="25px"
       fill="#2a2c34"
       id="text5200" />
    <text
       text-anchor="middle"
       pointer-events="none"
       y="5"
       font-size="10px"
       fill="#2a2c34"
       font-family="sans-serif"
       id="text5202" />
  </g>
  <g
     class="node"
     transform="translate(-300.06078,-82.335855)"
     id="g5236">
    <circle
       class="outline"
       cx="0"
       cy="0"
       r="25"
       fill="#a5abb6"
       stroke="#9aa1ac"
       stroke-width="2px"
       id="circle5230" />
    <text
       text-anchor="middle"
       pointer-events="none"
       font-family="sans-serif"
       dy="1.5625"
       font-size="25px"
       fill="#ffffff"
       id="text5232" />
    <text
       text-anchor="middle"
       pointer-events="none"
       y="5"
       font-size="10px"
       fill="#ffffff"
       font-family="sans-serif"
       id="text5234">KEYWO…</text>
  </g>
  <g
     class="node"
     transform="translate(19.74232,17.043963)"
     id="g5244">
    <circle
       class="outline"
       cx="0"
       cy="0"
       r="25"
       fill="#a5abb6"
       stroke="#9aa1ac"
       stroke-width="2px"
       id="circle5238" />
    <text
       text-anchor="middle"
       pointer-events="none"
       font-family="sans-serif"
       dy="1.5625"
       font-size="25px"
       fill="#ffffff"
       id="text5240" />
    <text
       text-anchor="middle"
       pointer-events="none"
       y="5"
       font-size="10px"
       fill="#ffffff"
       font-family="sans-serif"
       id="text5242">Institution</text>
  </g>
  <g
     class="node"
     transform="translate(-382.84326,-56.220586)"
     id="g5252">
    <circle
       class="outline"
       cx="0"
       cy="0"
       r="25"
       fill="#ecb5c9"
       stroke="#da7298"
       stroke-width="2px"
       id="circle5246" />
    <text
       text-anchor="middle"
       pointer-events="none"
       font-family="sans-serif"
       dy="1.5625"
       font-size="25px"
       fill="#2a2c34"
       id="text5248" />
    <text
       text-anchor="middle"
       pointer-events="none"
       y="5"
       font-size="10px"
       fill="#2a2c34"
       font-family="sans-serif"
       id="text5250" />
  </g>
  <g
     class="node"
     transform="translate(-27.231355,139.29465)"
     id="g5268">
    <circle
       class="outline"
       cx="0"
       cy="0"
       r="25"
       fill="#f79767"
       stroke="#f36924"
       stroke-width="2px"
       id="circle5262" />
    <text
       text-anchor="middle"
       pointer-events="none"
       font-family="sans-serif"
       dy="1.5625"
       font-size="25px"
       fill="#ffffff"
       id="text5264" />
    <text
       text-anchor="middle"
       pointer-events="none"
       y="5"
       font-size="10px"
       fill="#ffffff"
       font-family="sans-serif"
       id="text5266">OBJECT</text>
  </g>
  <g
     class="node"
     transform="translate(-74.24385,-71.727225)"
     id="g5276">
    <circle
       class="outline"
       cx="0"
       cy="0"
       r="25"
       fill="#8dcc93"
       stroke="#5db665"
       stroke-width="2px"
       id="circle5270" />
    <text
       text-anchor="middle"
       pointer-events="none"
       font-family="sans-serif"
       dy="1.5625"
       font-size="25px"
       fill="#2a2c34"
       id="text5272" />
    <text
       text-anchor="middle"
       pointer-events="none"
       y="5"
       font-size="10px"
       fill="#2a2c34"
       font-family="sans-serif"
       id="text5274">AGENT</text>
  </g>
  <g
     class="node"
     transform="translate(271.89666,-38.658692)"
     id="g5284">
    <circle
       class="outline"
       cx="0"
       cy="0"
       r="25"
       fill="#a5abb6"
       stroke="#9aa1ac"
       stroke-width="2px"
       id="circle5278" />
    <text
       text-anchor="middle"
       pointer-events="none"
       font-family="sans-serif"
       dy="1.5625"
       font-size="25px"
       fill="#ffffff"
       id="text5280" />
    <text
       text-anchor="middle"
       pointer-events="none"
       y="5"
       font-size="10px"
       fill="#ffffff"
       font-family="sans-serif"
       id="text5282">Month</text>
  </g>
  <g
     class="node"
     transform="translate(140.55665,62.074314)"
     id="g5292">
    <circle
       class="outline"
       cx="0"
       cy="0"
       r="25"
       fill="#a5abb6"
       stroke="#9aa1ac"
       stroke-width="2px"
       id="circle5286" />
    <text
       text-anchor="middle"
       pointer-events="none"
       font-family="sans-serif"
       dy="1.5625"
       font-size="25px"
       fill="#ffffff"
       id="text5288" />
    <text
       text-anchor="middle"
       pointer-events="none"
       y="5"
       font-size="10px"
       fill="#ffffff"
       font-family="sans-serif"
       id="text5290">Year</text>
  </g>
  <g
     class="node"
     transform="translate(-241.64221,19.334156)"
     id="g5300">
    <circle
       class="outline"
       cx="0"
       cy="0"
       r="5"
       fill="#f16667"
       stroke="#eb2728"
       stroke-width="2px"
       id="circle5294" />
    <text
       text-anchor="middle"
       pointer-events="none"
       font-family="sans-serif"
       dy="0.3125"
       font-size="5px"
       fill="#ffffff"
       id="text5296" />
    <text
       text-anchor="middle"
       pointer-events="none"
       y="5"
       font-size="10px"
       fill="#ffffff"
       font-family="sans-serif"
       id="text5298" />
  </g>
  <g
     class="node"
     transform="translate(134.36865,-59.242261)"
     id="g5308">
    <circle
       class="outline"
       cx="0"
       cy="0"
       r="25"
       fill="#a5abb6"
       stroke="#9aa1ac"
       stroke-width="2px"
       id="circle5302" />
    <text
       text-anchor="middle"
       pointer-events="none"
       font-family="sans-serif"
       dy="1.5625"
       font-size="25px"
       fill="#ffffff"
       id="text5304" />
    <text
       text-anchor="middle"
       pointer-events="none"
       y="5"
       font-size="10px"
       fill="#ffffff"
       font-family="sans-serif"
       id="text5306">State</text>
  </g>
  <g
     class="node"
     transform="translate(226.44468,-146.14729)"
     id="g5316">
    <circle
       class="outline"
       cx="0"
       cy="0"
       r="25"
       fill="#a5abb6"
       stroke="#9aa1ac"
       stroke-width="2px"
       id="circle5310" />
    <text
       text-anchor="middle"
       pointer-events="none"
       font-family="sans-serif"
       dy="1.5625"
       font-size="25px"
       fill="#ffffff"
       id="text5312" />
    <text
       text-anchor="middle"
       pointer-events="none"
       y="5"
       font-size="10px"
       fill="#ffffff"
       font-family="sans-serif"
       id="text5314">Country</text>
  </g>
  <g
     class="node"
     transform="translate(-122.28946,293.55044)"
     id="g5324">
    <circle
       class="outline"
       cx="0"
       cy="0"
       r="25"
       fill="#a5abb6"
       stroke="#9aa1ac"
       stroke-width="2px"
       id="circle5318" />
    <text
       text-anchor="middle"
       pointer-events="none"
       font-family="sans-serif"
       dy="1.5625"
       font-size="25px"
       fill="#ffffff"
       id="text5320" />
    <text
       text-anchor="middle"
       pointer-events="none"
       y="5"
       font-size="10px"
       fill="#ffffff"
       font-family="sans-serif"
       id="text5322">Division</text>
  </g>
  <g
     class="node"
     transform="translate(44.31027,-127.05154)"
     id="g5332">
    <circle
       class="outline"
       cx="0"
       cy="0"
       r="25"
       fill="#4c8eda"
       stroke="#2870c2"
       stroke-width="2px"
       id="circle5326" />
    <text
       text-anchor="middle"
       pointer-events="none"
       font-family="sans-serif"
       dy="1.5625"
       font-size="25px"
       fill="#ffffff"
       id="text5328" />
    <text
       text-anchor="middle"
       pointer-events="none"
       y="5"
       font-size="10px"
       fill="#ffffff"
       font-family="sans-serif"
       id="text5330" />
  </g>
  <g
     class="node"
     transform="translate(-195.45455,217.16408)"
     id="g5340">
    <circle
       class="outline"
       cx="0"
       cy="0"
       r="25"
       fill="#d9c8ae"
       stroke="#c0a378"
       stroke-width="2px"
       id="circle5334" />
    <text
       text-anchor="middle"
       pointer-events="none"
       font-family="sans-serif"
       dy="1.5625"
       font-size="25px"
       fill="#2a2c34"
       id="text5336" />
    <text
       text-anchor="middle"
       pointer-events="none"
       y="5"
       font-size="10px"
       fill="#2a2c34"
       font-family="sans-serif"
       id="text5338" />
  </g>
  <g
     class="node"
     transform="translate(-24.479615,317.731)"
     id="g5348">
    <circle
       class="outline"
       cx="0"
       cy="0"
       r="25"
       fill="#a5abb6"
       stroke="#9aa1ac"
       stroke-width="2px"
       id="circle5342" />
    <text
       text-anchor="middle"
       pointer-events="none"
       font-family="sans-serif"
       dy="1.5625"
       font-size="25px"
       fill="#ffffff"
       id="text5344" />
    <text
       text-anchor="middle"
       pointer-events="none"
       y="5"
       font-size="10px"
       fill="#ffffff"
       font-family="sans-serif"
       id="text5346">Director…</text>
  </g>
  <text
     text-anchor="middle"
     pointer-events="none"
     y="222.08943"
     font-size="10px"
     fill="#ffffff"
     font-family="sans-serif"
     id="text5266-3"
     x="-195.12009"><tspan
       style="fill:#000000;fill-opacity:1"
       id="tspan6270">TYPE</tspan></text>
</svg>
